# xmcd
#
# Track frame offsets: 
#        150
#        23586
#        51953
#        72517
#        79127
#        97861
#        121374
#        148513
#        177909
#        203011
#        224523
#
# Disc length: 3246 seconds
#
# Revision: 0
# Processed by: cddbd v1.5.2PL0 Copyright (c) Steve Scherf et al.
# Submitted via: ExactAudioCopy v0.99pb4
#
DISCID=990cac0b
DTITLE=Subtilu-Z - The Beginning
DYEAR=2009
DGENRE=Other
TTITLE0=Winter Roads. Towards Warmth (Povilas Velikis)
TTITLE1=Evening in the Mountains (Anatolij Gaidenko)
TTITLE2=Oblivion (Astor Piazzolla)
TTITLE3=Solfiggiettissimo (C P E Bach arr. Philip R Buttall)
TTITLE4=Nostalgija (Jurijs Peskovs)
TTITLE5=Unexpected Space (Povilas Velikis)
TTITLE6=Caravan (Juan Tizol - Duke Ellington)
TTITLE7=My Sweet Rosette (Josef Peter Traun)
TTITLE8=Flossa Nova v2.0 (Alfie Pugh)
TTITLE9=Watermelon Man (Herbie Hancock)
TTITLE10=P.S. (Dmitrijs Mihailovs)
EXTD=
EXTT0=
EXTT1=
EXTT2=
EXTT3=
EXTT4=
EXTT5=
EXTT6=
EXTT7=
EXTT8=
EXTT9=
EXTT10=
PLAYORDER=
